<svg xmlns="http://www.w3.org/2000/svg" xmlns:xlink="http://www.w3.org/1999/xlink" viewBox="0 0 512 512"><defs><path id="a" d="M512 274v-36l-31.6-5.7c-1.4-13.8-4.1-27-7.9-40l27-17.4-13.9-33.4-31.4 6.8c-6.6-12-14.2-23.3-22.7-33.9l18.3-26.4-25.6-25.6-26.4 18.3c-10.6-8.5-21.9-16-33.9-22.7l6.8-31.4-33.4-13.9-17.4 27c-12.9-3.8-26-6.5-40-7.9l-5.7-31.6h-36l-5.7 31.6c-13.8 1.4-27 4.1-40 7.9l-17.4-27-33.4 13.9 6.8 31.4c-12 6.5-23.3 14.2-33.9 22.7l-26.4-18.3-25.6 25.6 18.3 26.4c-8.5 10.6-16 21.9-22.7 33.9l-31.4-6.8-13.8 33.4 27 17.4c-3.8 12.9-6.5 26-7.9 40l-31.6 5.7v36l31.6 5.7c1.4 13.8 4.1 27 7.9 40l-27 17.4 13.8 33.4 31.4-6.8c6.5 12 14.2 23.3 22.7 33.9l-18.3 26.4 25.6 25.6 26.4-18.3c10.6 8.5 21.9 16 33.9 22.7l-6.8 31.4 33.4 13.9 17.4-27c12.9 3.8 26 6.5 40 7.9l5.7 31.6h36l5.7-31.6c13.8-1.4 27-4.1 40-7.9l17.4 27 33.4-13.9-6.8-31.4c12-6.6 23.3-14.2 33.9-22.7l26.4 18.3 25.6-25.6-18.3-26.4c8.5-10.6 16-21.9 22.7-33.9l31.4 6.8 13.9-33.4-27-17.4c3.8-12.9 6.5-26 7.9-40l31.6-5.7"/><path id="w" d="M256 51c-113 0-205 92-205 205s92 205 205 205 205-92 205-205-92-205-205-205"/><path id="x" d="M446 256c0-105-85-190-190-190s-190 85-190 190 85 190 190 190 190-85 190-190"/><path id="r" d="M256 81c-97 0-175 78-175 175s78 175 175 175 175-78 175-175-78-175-175-175"/><path id="m" d="M256 44c117 0 212 95 212 212s-95 212-212 212-212-95-212-212 95-212 212-212"/><path id="n" d="M452 256c0 108-88 196-196 196s-196-88-196-196 88-196 196-196 196 88 196 196"/><circle id="s" cx="297" cy="188" r="17"/><circle id="q" cx="146" cy="218" r="17"/><circle id="p" cx="231" cy="242" r="34"/><circle id="o" cx="181" cy="313" r="24"/><circle id="v" cx="289" cy="307" r="24"/><circle id="l" cx="316" cy="138" r="13.7"/><circle id="k" cx="246" cy="137" r="13.7"/><circle id="t" cx="253" cy="370" r="17"/><circle id="u" cx="361" cy="331" r="17"/><clipPath id="b"><use xlink:href="#a"/></clipPath><clipPath id="R"><use xlink:href="#o"/></clipPath><clipPath id="P"><use xlink:href="#p"/></clipPath><clipPath id="X"><use xlink:href="#q"/></clipPath><clipPath id="al"><use xlink:href="#l"/></clipPath><clipPath id="L"><use xlink:href="#r"/></clipPath><clipPath id="Z"><use xlink:href="#s"/></clipPath><clipPath id="ai"><use xlink:href="#k"/></clipPath><clipPath id="ac"><use xlink:href="#t"/></clipPath><clipPath id="af"><use xlink:href="#u"/></clipPath><clipPath id="U"><use xlink:href="#v"/></clipPath><clipPath id="i"><use xlink:href="#w"/></clipPath><clipPath id="E"><use xlink:href="#x"/></clipPath><linearGradient id="D" gradientUnits="userSpaceOnUse" x1="377" y1="429" x2="135" y2="83" xlink:href="#h"/><linearGradient id="B" gradientUnits="userSpaceOnUse" x1="452" y1="177" x2="59.7" y2="335" xlink:href="#e"/><linearGradient id="C" gradientUnits="userSpaceOnUse" x1="406" y1="406" x2="106" y2="106" xlink:href="#g"/><linearGradient id="j" gradientUnits="userSpaceOnUse" x1="359" y1="70.8" x2="153" y2="441" xlink:href="#c"/><linearGradient id="c" gradientUnits="userSpaceOnUse" x1="481" y1="381" x2="31" y2="131"><stop stop-color="#bdc6c9"/><stop offset=".1" stop-color="#abb4b7"/><stop offset=".3" stop-color="#7d8588"/><stop offset=".5" stop-color="#444a4d"/><stop offset=".6" stop-color="#5e6669"/><stop offset=".8" stop-color="#899396"/><stop offset=".9" stop-color="#a3afb2"/><stop offset="1" stop-color="#adbabd"/></linearGradient><linearGradient id="F" gradientUnits="userSpaceOnUse" x1="428" y1="351" x2="84" y2="161" xlink:href="#c"/><linearGradient id="e" gradientUnits="userSpaceOnUse" x1="352" y1="494" x2="160" y2="17.6"><stop stop-color="#fff" stop-opacity="0"/><stop offset=".5" stop-color="#4d5057" stop-opacity=".8"/><stop offset="1" stop-color="#fff" stop-opacity="0"/></linearGradient><linearGradient id="h" gradientUnits="userSpaceOnUse" x1="45" y1="403" x2="467" y2="109"><stop offset=".2" stop-color="#fff" stop-opacity="0"/><stop offset=".5" stop-color="#fff" stop-opacity=".4"/><stop offset=".8" stop-color="#fff" stop-opacity="0"/></linearGradient><linearGradient id="g" gradientUnits="userSpaceOnUse" x1="74" y1="438" x2="438" y2="74"><stop stop-color="#fff" stop-opacity="0"/><stop offset=".5" stop-color="#828282" stop-opacity=".6"/><stop offset="1" stop-color="#fff" stop-opacity="0"/></linearGradient><linearGradient id="K" gradientUnits="userSpaceOnUse" x1="95" y1="369" x2="417" y2="143" xlink:href="#h"/><linearGradient id="M" gradientUnits="userSpaceOnUse" x1="132" y1="132" x2="380" y2="380"><stop stop-color="#14b9ff"/><stop offset="1" stop-color="#48007f"/></linearGradient><linearGradient id="I" gradientUnits="userSpaceOnUse" x1="330" y1="438" x2="182" y2="74" xlink:href="#e"/><linearGradient id="J" gradientUnits="userSpaceOnUse" x1="117" y1="395" x2="395" y2="117" xlink:href="#g"/><radialGradient id="am" cx="311" cy="134" r="20.6" gradientUnits="userSpaceOnUse" xlink:href="#y"/><radialGradient id="A" cx="256" cy="256" r="218" gradientTransform="matrix(NaN 1 0 7.4 505)" gradientUnits="userSpaceOnUse"><stop offset=".9" stop-color="#0058d4" stop-opacity=".6"/><stop offset="1" stop-color="#f8f8f8" stop-opacity="0"/></radialGradient><radialGradient id="ak" cx="245" cy="136" r="14.7" gradientUnits="userSpaceOnUse" xlink:href="#z"/><radialGradient id="an" cx="316" cy="138" r="14.7" gradientUnits="userSpaceOnUse"><stop stop-color="#fff" stop-opacity="0"/><stop offset=".3" stop-color="#fcfdfe" stop-opacity=".2"/><stop offset=".4" stop-color="#f3f7fd" stop-opacity=".4"/><stop offset=".6" stop-color="#e4ecf9" stop-opacity=".5"/><stop offset=".8" stop-color="#ceddf5" stop-opacity=".6"/><stop offset=".9" stop-color="#b2c9ef" stop-opacity=".7"/><stop offset="1" stop-color="#95b5e9" stop-opacity=".8"/></radialGradient><radialGradient id="y" cx="219" cy="230" r="51" gradientUnits="userSpaceOnUse"><stop stop-color="#fff"/><stop offset="1" stop-color="#b8c4d1"/></radialGradient><radialGradient id="f" cx="256" cy="256" r="257" gradientUnits="userSpaceOnUse"><stop offset=".8" stop-color="#6b6b6b" stop-opacity="0"/><stop offset=".8" stop-color="#848484" stop-opacity="0"/><stop offset=".9" stop-color="#b5b5b5" stop-opacity=".1"/><stop offset=".9" stop-color="#dadada" stop-opacity=".1"/><stop offset="1" stop-color="#f0f0f0" stop-opacity=".1"/><stop offset="1" stop-color="#f8f8f8" stop-opacity=".2"/></radialGradient><radialGradient id="d" cx="256" cy="256" r="257" gradientUnits="userSpaceOnUse"><stop offset=".7" stop-color="#004ed4" stop-opacity=".4"/><stop offset=".8" stop-color="#437cde" stop-opacity=".3"/><stop offset=".8" stop-color="#83a8e7" stop-opacity=".2"/><stop offset=".9" stop-color="#b5caee" stop-opacity=".2"/><stop offset=".9" stop-color="#dae3f4" stop-opacity=".1"/><stop offset="1" stop-color="#f0f2f7" stop-opacity="0"/><stop offset="1" stop-color="#f8f8f8" stop-opacity="0"/></radialGradient><radialGradient id="N" cx="256" cy="256" r="176" gradientUnits="userSpaceOnUse"><stop offset=".3" stop-color="#006cc2" stop-opacity="0"/><stop offset=".6" stop-color="#016ec3" stop-opacity=".2"/><stop offset=".7" stop-color="#0575c7" stop-opacity=".3"/><stop offset=".8" stop-color="#0d80ce" stop-opacity=".4"/><stop offset=".9" stop-color="#1791d8" stop-opacity=".4"/><stop offset=".9" stop-color="#25a7e4" stop-opacity=".5"/><stop offset="1" stop-color="#36c2f4" stop-opacity=".5"/><stop offset="1" stop-color="#42d5ff" stop-opacity=".5"/></radialGradient><radialGradient id="V" cx="281" cy="298" r="36" gradientUnits="userSpaceOnUse" xlink:href="#y"/><radialGradient id="O" cx="202" cy="193" r="127" gradientUnits="userSpaceOnUse"><stop stop-color="#e1ffff" stop-opacity=".5"/><stop offset=".1" stop-color="#d9f9fd" stop-opacity=".5"/><stop offset=".2" stop-color="#c3e7f6" stop-opacity=".4"/><stop offset=".4" stop-color="#9ecaec" stop-opacity=".3"/><stop offset=".6" stop-color="#6ca2de" stop-opacity=".2"/><stop offset=".9" stop-color="#2c6fcc" stop-opacity=".1"/><stop offset="1" stop-color="#004cbf" stop-opacity="0"/></radialGradient><radialGradient id="aj" cx="241" cy="132" r="20.6" gradientUnits="userSpaceOnUse" xlink:href="#y"/><radialGradient id="T" cx="180" cy="312" r="25.8" gradientUnits="userSpaceOnUse"><stop stop-color="#fff" stop-opacity="0"/><stop offset=".3" stop-color="#fcfdfe" stop-opacity=".2"/><stop offset=".4" stop-color="#f3f6fd" stop-opacity=".4"/><stop offset=".6" stop-color="#e4eaf9" stop-opacity=".5"/><stop offset=".8" stop-color="#ced9f5" stop-opacity=".6"/><stop offset=".9" stop-color="#b2c4ef" stop-opacity=".7"/><stop offset="1" stop-color="#95aee9" stop-opacity=".8"/></radialGradient><radialGradient id="Q" cx="230" cy="241" r="36.8" gradientUnits="userSpaceOnUse"><stop stop-color="#fff" stop-opacity="0"/><stop offset=".3" stop-color="#fcfdfe" stop-opacity=".2"/><stop offset=".4" stop-color="#f3f6fd" stop-opacity=".4"/><stop offset=".6" stop-color="#e4ebf9" stop-opacity=".5"/><stop offset=".8" stop-color="#cedbf5" stop-opacity=".6"/><stop offset=".9" stop-color="#b2c7ef" stop-opacity=".7"/><stop offset="1" stop-color="#95b2e9" stop-opacity=".8"/></radialGradient><radialGradient id="z" cx="145" cy="217" r="18.4" gradientUnits="userSpaceOnUse"><stop stop-color="#fff" stop-opacity="0"/><stop offset=".3" stop-color="#fcfefe" stop-opacity=".2"/><stop offset=".4" stop-color="#f3f9fd" stop-opacity=".4"/><stop offset=".6" stop-color="#e4f1f9" stop-opacity=".5"/><stop offset=".8" stop-color="#cee5f5" stop-opacity=".6"/><stop offset=".9" stop-color="#b2d6ef" stop-opacity=".7"/><stop offset="1" stop-color="#95c7e9" stop-opacity=".8"/></radialGradient><radialGradient id="G" cx="261" cy="261" r="186" gradientUnits="userSpaceOnUse"><stop offset=".9" stop-color="#0037d4"/><stop offset="1" stop-color="#f8f8f8" stop-opacity="0"/></radialGradient><radialGradient id="W" cx="288" cy="306" r="25.8" gradientUnits="userSpaceOnUse"><stop stop-color="#fff" stop-opacity="0"/><stop offset=".3" stop-color="#fcfdfe" stop-opacity=".2"/><stop offset=".4" stop-color="#f3f5fd" stop-opacity=".4"/><stop offset=".6" stop-color="#e4e7f9" stop-opacity=".5"/><stop offset=".8" stop-color="#ced4f5" stop-opacity=".6"/><stop offset=".9" stop-color="#b2bbef" stop-opacity=".7"/><stop offset="1" stop-color="#95a2e9" stop-opacity=".8"/></radialGradient><radialGradient id="Y" cx="140" cy="212" r="25.7" gradientUnits="userSpaceOnUse" xlink:href="#y"/><radialGradient id="aa" cx="291" cy="182" r="25.7" gradientUnits="userSpaceOnUse" xlink:href="#y"/><radialGradient id="ah" cx="360" cy="330" r="18.4" gradientUnits="userSpaceOnUse"><stop stop-color="#fff" stop-opacity="0"/><stop offset=".3" stop-color="#fdfcfe" stop-opacity=".2"/><stop offset=".4" stop-color="#f5f3fd" stop-opacity=".4"/><stop offset=".6" stop-color="#e9e4f9" stop-opacity=".5"/><stop offset=".8" stop-color="#d7cef5" stop-opacity=".6"/><stop offset=".9" stop-color="#c0b2ef" stop-opacity=".7"/><stop offset="1" stop-color="#a995e9" stop-opacity=".8"/></radialGradient><radialGradient id="ag" cx="355" cy="325" r="25.7" gradientUnits="userSpaceOnUse" xlink:href="#y"/><radialGradient id="ab" cx="296" cy="187" r="18.4" gradientUnits="userSpaceOnUse"><stop stop-color="#fff" stop-opacity="0"/><stop offset=".3" stop-color="#fcfdfe" stop-opacity=".2"/><stop offset=".4" stop-color="#f3f7fd" stop-opacity=".4"/><stop offset=".6" stop-color="#e4ecf9" stop-opacity=".5"/><stop offset=".8" stop-color="#cedef5" stop-opacity=".6"/><stop offset=".9" stop-color="#b2cbef" stop-opacity=".7"/><stop offset="1" stop-color="#95b7e9" stop-opacity=".8"/></radialGradient><radialGradient id="H" cx="256" cy="256" r="192" gradientUnits="userSpaceOnUse"><stop offset=".9" stop-color="#0066d4"/><stop offset="1" stop-color="#f8f8f8" stop-opacity="0"/></radialGradient><radialGradient id="ad" cx="247" cy="364" r="25.7" gradientUnits="userSpaceOnUse" xlink:href="#y"/><radialGradient id="S" cx="172" cy="304" r="36" gradientUnits="userSpaceOnUse" xlink:href="#y"/><radialGradient id="ae" cx="253" cy="369" r="18.4" gradientUnits="userSpaceOnUse"><stop stop-color="#fff" stop-opacity="0"/><stop offset=".3" stop-color="#fcfcfe" stop-opacity=".2"/><stop offset=".4" stop-color="#f3f3fd" stop-opacity=".4"/><stop offset=".6" stop-color="#e4e4f9" stop-opacity=".5"/><stop offset=".8" stop-color="#cecff5" stop-opacity=".6"/><stop offset=".9" stop-color="#b2b4ef" stop-opacity=".7"/><stop offset="1" stop-color="#9598e9" stop-opacity=".8"/></radialGradient></defs><circle clip-path="url(#b)" fill="url(#c)" cx="256" cy="256" r="257"/><circle clip-path="url(#b)" fill="url(#d)" cx="256" cy="256" r="257"/><circle clip-path="url(#b)" fill="url(#e)" cx="256" cy="256" r="257"/><circle clip-path="url(#b)" fill="url(#f)" cx="256" cy="256" r="257"/><circle clip-path="url(#b)" fill="url(#g)" cx="256" cy="256" r="257"/><circle clip-path="url(#b)" fill="url(#h)" cx="256" cy="256" r="257"/><use clip-path="url(#i)" fill="url(#j)" xlink:href="#m"/><use clip-path="url(#i)" fill="url(#A)" xlink:href="#m"/><use clip-path="url(#i)" fill="url(#B)" xlink:href="#m"/><use clip-path="url(#i)" fill="url(#C)" xlink:href="#m"/><use clip-path="url(#i)" fill="url(#D)" xlink:href="#m"/><path clip-path="url(#E)" fill="url(#F)" d="M452 256c0 108-88 196-196 196s-196-88-196-196 88-196 196-196 196 88 196 196"/><path clip-path="url(#E)" fill="url(#G)" d="M447 261c0 103-83 186-186 186s-186-83-186-186 83-186 186-186 186 83 186 186"/><path clip-path="url(#E)" fill="url(#H)" d="M448 256c0 106-86 192-192 192s-192-86-192-192 86-192 192-192 192 86 192 192"/><use clip-path="url(#E)" fill="url(#I)" xlink:href="#n"/><use clip-path="url(#E)" fill="url(#J)" xlink:href="#n"/><use clip-path="url(#E)" fill="url(#K)" xlink:href="#n"/><path clip-path="url(#L)" fill="url(#M)" d="M256 80c-97 0-176 79-176 175 0 97 79 175 176 175s175-79 175-175c0-97-79-175-175-175"/><path clip-path="url(#L)" fill="url(#N)" d="M256 80c-97 0-176 79-176 175 0 97 79 175 176 175s175-79 175-175c0-97-79-175-175-175"/><path clip-path="url(#L)" fill="url(#O)" d="M202 66c-70 0-127 56.9-127 127 0 70 56.9 127 127 127 70 0 127-56.9 127-127 0-70-56.9-127-127-127"/><path opacity=".3" clip-path="url(#L)" fill="#191919" d="M256 67c-104 0-189 85-189 189s85 189 189 189 189-85 189-189-85-189-189-189m0 361c-95 0-172-77-172-172s77-172 172-172 172 77 172 172-77 172-172 172"/><g stroke="#e4eaf4" stroke-width="3" stroke-miterlimit="10" fill="none"><path d="M231 242l65-54"/><path d="M297 188l-50.7-51"/><path d="M297 188l19.5-49"/><path d="M231 242l-85-24"/><path d="M231 242l-50.7 70"/><path d="M231 242l57 63"/><path d="M288 306l72 24.3"/><path d="M288 306l-34.6 64"/></g><circle clip-path="url(#P)" fill="url(#y)" cx="219" cy="230" r="51"/><circle clip-path="url(#P)" fill="url(#Q)" cx="230" cy="241" r="36.8"/><circle clip-path="url(#R)" fill="url(#S)" cx="172" cy="304" r="36"/><circle clip-path="url(#R)" fill="url(#T)" cx="180" cy="312" r="25.8"/><circle clip-path="url(#U)" fill="url(#V)" cx="281" cy="298" r="36"/><circle clip-path="url(#U)" fill="url(#W)" cx="288" cy="306" r="25.8"/><circle clip-path="url(#X)" fill="url(#Y)" cx="140" cy="212" r="25.7"/><circle clip-path="url(#X)" fill="url(#z)" cx="145" cy="218" r="18.4"/><circle clip-path="url(#Z)" fill="url(#aa)" cx="291" cy="182" r="25.7"/><circle clip-path="url(#Z)" fill="url(#ab)" cx="296" cy="187" r="18.4"/><circle clip-path="url(#ac)" fill="url(#ad)" cx="247" cy="364" r="25.7"/><circle clip-path="url(#ac)" fill="url(#ae)" cx="253" cy="369" r="18.4"/><circle clip-path="url(#af)" fill="url(#ag)" cx="355" cy="325" r="25.7"/><circle clip-path="url(#af)" fill="url(#ah)" cx="360" cy="330" r="18.4"/><circle clip-path="url(#ai)" fill="url(#aj)" cx="241" cy="132" r="20.6"/><circle clip-path="url(#ai)" fill="url(#ak)" cx="245" cy="136" r="14.7"/><circle clip-path="url(#al)" fill="url(#am)" cx="311" cy="134" r="20.6"/><circle clip-path="url(#al)" fill="url(#an)" cx="316" cy="138" r="14.7"/></svg>